<svg version="1.1" xmlns="http://www.w3.org/2000/svg" viewBox="0 0 1547.5374324212837 627.0533124664137" width="1547.5374324212837" height="627.0533124664137" filter="invert(93%) hue-rotate(180deg)">
  <!-- svg-source:excalidraw -->
  
  <defs>
    <style class="style-fonts">
      @font-face {
        font-family: "Virgil";
        src: url("https://excalidraw.com/Virgil.woff2");
      }
      @font-face {
        font-family: "Cascadia";
        src: url("https://excalidraw.com/Cascadia.woff2");
      }
      @font-face {
        font-family: "Assistant";
        src: url("https://excalidraw.com/Assistant-Regular.woff2");
      }
    </style>
    
  </defs>
  <rect x="0" y="0" width="1547.5374324212837" height="627.0533124664137" fill="#ffffff"></rect><g stroke-linecap="round" transform="translate(240.05856802668995 259.57298582395316) rotate(0 15.803995935042607 15.668768815933007)"><path d="M15.58 0.45 C18.84 0.35, 23.66 1.61, 26.27 3.67 C28.88 5.72, 30.7 9.45, 31.23 12.8 C31.75 16.15, 31.07 20.89, 29.42 23.76 C27.77 26.63, 24.51 28.89, 21.33 30.03 C18.16 31.16, 13.62 31.74, 10.37 30.57 C7.13 29.4, 3.5 26.07, 1.87 23.02 C0.23 19.97, -0.06 15.5, 0.57 12.28 C1.21 9.06, 2.92 5.68, 5.69 3.69 C8.47 1.7, 15.32 0.92, 17.25 0.35 C19.18 -0.22, 17.31 0.03, 17.27 0.28 M18.5 0.86 C21.59 1.12, 25.54 2.79, 27.64 5.14 C29.75 7.48, 30.99 11.63, 31.13 14.94 C31.26 18.25, 30.47 22.26, 28.44 25 C26.42 27.73, 22.34 30.71, 18.98 31.37 C15.61 32.02, 11.27 30.6, 8.24 28.92 C5.21 27.24, 2.1 24.49, 0.8 21.3 C-0.51 18.12, -0.8 13.05, 0.4 9.81 C1.6 6.57, 5.03 3.34, 7.97 1.86 C10.92 0.38, 16.41 1.07, 18.04 0.94 C19.68 0.81, 17.76 0.94, 17.78 1.06" stroke="none" stroke-width="0" fill="#1e1e1e"></path><path d="M12.63 0.28 C15.69 -0.51, 20.34 0.14, 23.26 1.73 C26.19 3.31, 29 6.67, 30.17 9.81 C31.34 12.96, 31.28 17.29, 30.28 20.58 C29.29 23.86, 27.07 27.85, 24.22 29.53 C21.38 31.22, 16.68 31.28, 13.21 30.7 C9.74 30.12, 5.53 28.56, 3.41 26.06 C1.28 23.57, 0.49 19.17, 0.46 15.71 C0.44 12.26, 1.1 7.86, 3.26 5.34 C5.41 2.83, 11.65 1.41, 13.39 0.62 C15.13 -0.16, 13.72 0.46, 13.69 0.61 M19.43 1.11 C22.66 1.67, 26.95 4.13, 28.96 6.6 C30.97 9.07, 31.7 12.56, 31.49 15.93 C31.29 19.3, 30.03 24.22, 27.75 26.82 C25.46 29.43, 21.23 31.12, 17.78 31.57 C14.33 32.02, 9.89 31.38, 7.07 29.51 C4.25 27.63, 1.82 23.68, 0.88 20.32 C-0.05 16.95, 0.1 12.31, 1.47 9.31 C2.83 6.3, 6.22 3.84, 9.08 2.29 C11.94 0.73, 16.97 0.18, 18.62 -0.01 C20.28 -0.2, 18.92 0.9, 19.03 1.13" stroke="#1e1e1e" stroke-width="2" fill="none"></path></g><g transform="translate(282.6344818676567 263.1459670266995) rotate(0 99.60937500000001 12)"><text x="0" y="0" font-family="Cascadia, Segoe UI Emoji" font-size="20px" fill="#1e1e1e" text-anchor="start" style="white-space: pre;" direction="ltr" dominant-baseline="text-before-edge">Ключевая точка 1 </text></g><g stroke-linecap="round" transform="translate(599.7398306514265 259.43323339941935) rotate(0 15.803995935042622 15.668768815933007)"><path d="M15.96 0.12 C19.23 -0.19, 23.68 1.16, 26.23 3.38 C28.77 5.59, 30.68 9.99, 31.21 13.4 C31.74 16.81, 31.14 21.02, 29.4 23.83 C27.67 26.63, 24.01 29.15, 20.78 30.2 C17.56 31.26, 13.1 31.23, 10.04 30.14 C6.98 29.04, 4.09 26.51, 2.4 23.63 C0.71 20.76, -0.57 16.23, -0.09 12.91 C0.4 9.59, 2.5 5.88, 5.33 3.71 C8.15 1.54, 14.86 0.39, 16.87 -0.12 C18.87 -0.62, 17.35 0.42, 17.35 0.69 M15.39 -0.67 C18.57 -1.07, 23.16 0.76, 25.73 2.86 C28.3 4.95, 30.21 8.49, 30.82 11.9 C31.42 15.31, 30.99 20.2, 29.38 23.32 C27.78 26.44, 24.25 29.47, 21.19 30.63 C18.13 31.78, 14.18 31.33, 11.01 30.26 C7.83 29.19, 4 26.99, 2.13 24.21 C0.26 21.42, -0.61 16.91, -0.21 13.55 C0.19 10.2, 2.09 6.26, 4.54 4.08 C6.99 1.89, 12.85 1, 14.49 0.44 C16.12 -0.13, 14.12 0.5, 14.33 0.7" stroke="none" stroke-width="0" fill="#1e1e1e"></path><path d="M11.89 0.16 C14.93 -0.79, 19.49 0.54, 22.59 2.07 C25.69 3.6, 29.01 6.41, 30.48 9.35 C31.95 12.29, 32.47 16.54, 31.41 19.69 C30.34 22.83, 27.01 26.38, 24.11 28.23 C21.2 30.07, 17.27 31.05, 13.98 30.76 C10.69 30.47, 6.72 28.88, 4.37 26.48 C2.03 24.08, 0.14 19.78, -0.08 16.35 C-0.29 12.93, 0.94 8.69, 3.09 5.95 C5.23 3.21, 10.94 0.85, 12.8 -0.06 C14.67 -0.97, 14.23 0.12, 14.27 0.49 M11.73 -0.06 C14.9 -1.01, 20.32 0.59, 23.48 2.16 C26.64 3.74, 29.58 6.3, 30.7 9.4 C31.82 12.49, 31.2 17.42, 30.19 20.75 C29.18 24.07, 27.42 27.52, 24.65 29.32 C21.88 31.13, 17.09 32.19, 13.58 31.57 C10.08 30.95, 5.88 28.24, 3.61 25.6 C1.35 22.97, 0.13 18.94, -0.03 15.74 C-0.2 12.53, 0.5 8.86, 2.6 6.37 C4.71 3.89, 10.87 1.8, 12.59 0.82 C14.31 -0.15, 12.79 0.29, 12.9 0.53" stroke="#1e1e1e" stroke-width="2" fill="none"></path></g><g transform="translate(643.3157444923932 262.8962605362759) rotate(0 23.4375 12)"><text x="0" y="0" font-family="Cascadia, Segoe UI Emoji" font-size="20px" fill="#1e1e1e" text-anchor="start" style="white-space: pre;" direction="ltr" dominant-baseline="text-before-edge">КТ 2</text></g><g stroke-linecap="round"><g transform="translate(485.8206316956624 276.6399974041799) rotate(0 55.001863282077835 0.16940025707901896)"><path d="M-0.19 0.78 C17.87 0.89, 90.58 -0.2, 108.9 -0.29 M-1.75 0.14 C16.62 0.49, 92.61 0.69, 111.03 0.91" stroke="#1e1e1e" stroke-width="4" fill="none"></path></g></g><mask></mask><g stroke-linecap="round" transform="translate(1151.480484790942 453.9310923464337) rotate(0 15.803995935042622 15.668768815932992)"><path d="M13.56 0.1 C16.76 -0.49, 21.7 1.04, 24.67 2.84 C27.65 4.64, 30.48 7.68, 31.4 10.89 C32.32 14.1, 31.53 19.02, 30.2 22.1 C28.87 25.19, 26.44 27.96, 23.44 29.4 C20.43 30.85, 15.52 31.56, 12.16 30.77 C8.81 29.97, 5.31 27.29, 3.32 24.63 C1.33 21.96, 0.04 18.09, 0.23 14.78 C0.42 11.48, 2.12 7.2, 4.46 4.81 C6.81 2.43, 12.7 1.24, 14.29 0.45 C15.88 -0.34, 14.08 -0.07, 14.03 0.08 M15.1 0.36 C18.25 -0.05, 23 0.92, 25.69 3.04 C28.39 5.16, 30.69 9.69, 31.26 13.09 C31.83 16.48, 30.6 20.61, 29.1 23.41 C27.61 26.2, 25.25 28.7, 22.29 29.84 C19.34 30.98, 14.66 31.16, 11.37 30.25 C8.08 29.34, 4.39 27.13, 2.55 24.37 C0.72 21.61, -0.08 17.05, 0.37 13.68 C0.82 10.32, 2.72 6.57, 5.25 4.2 C7.79 1.83, 13.96 0.2, 15.56 -0.53 C17.15 -1.27, 14.93 -0.65, 14.82 -0.2" stroke="#1e1e1e" stroke-width="2" fill="none"></path></g><g transform="translate(1193.1646311959726 457.11160635193795) rotate(0 23.4375 12)"><text x="0" y="0" font-family="Cascadia, Segoe UI Emoji" font-size="20px" fill="#1e1e1e" text-anchor="start" style="white-space: pre;" direction="ltr" dominant-baseline="text-before-edge">КТ 4</text></g><g mask="url(#mask-qRp9MA9n8a1SjvNYqJP4k)" stroke-linecap="round"><g transform="translate(1165.260054365455 293.6131039932093) rotate(0 -0.29634430686735413 67.47703770918528)"><path d="M-0.62 -0.2 C-0.42 22.25, -0.03 112.12, 0.03 134.71" stroke="#1e1e1e" stroke-width="4.5" fill="none" stroke-dasharray="1.5 10"></path></g></g><mask id="mask-qRp9MA9n8a1SjvNYqJP4k"><rect x="0" y="0" fill="#fff" width="1265.8527429791898" height="528.5671794115799"></rect><rect x="1150.9012100585874" y="351.4901417023945" fill="#000" width="28.125" height="19.2" opacity="1"></rect></mask><g transform="translate(1150.9012100585874 351.49014170239445) rotate(0 14.062047933787312 9.378311837464636)"><text x="14.0625" y="0" font-family="Cascadia, Segoe UI Emoji" font-size="16px" fill="#1e1e1e" text-anchor="middle" style="white-space: pre;" direction="ltr" dominant-baseline="text-before-edge">Нет</text></g><g stroke-linecap="round"><g transform="translate(260.4395828737736 156.0547438531905) rotate(0 -1.0985130175508857 47.507039640221066)"><path d="M-0.9 0.43 C-1.24 16.42, -1.11 79.38, -1.31 95.29" stroke="#1e1e1e" stroke-width="4.5" fill="none" stroke-dasharray="1.5 10"></path></g></g><mask></mask><g stroke-linecap="round" transform="translate(239.56211934700733 113.51239023921427) rotate(0 21.395643184398338 20.701380061029717)"><path d="M27.5 5.25 C29.75 7.83, 35.65 12.98, 37.29 15.75 M27.5 5.25 C32.09 9.16, 34.6 12.86, 37.29 15.75 M37.29 15.75 C43.69 22.04, 42.14 19.32, 37.29 26.25 M37.29 15.75 C44.97 19.93, 41.87 19.07, 37.29 26.25 M37.29 26.25 C34.16 29.85, 31.66 30.87, 27.5 36.15 M37.29 26.25 C34.12 29.8, 31.02 33, 27.5 36.15 M27.5 36.15 C23.96 42.39, 22.64 40.2, 16.5 36.15 M27.5 36.15 C23.58 40.19, 21.89 43.04, 16.5 36.15 M16.5 36.15 C13.23 32.81, 8.65 29, 5.5 26.25 M16.5 36.15 C12.37 32.34, 7.86 28.4, 5.5 26.25 M5.5 26.25 C-1.65 19.94, -0.61 20.52, 5.5 15.75 M5.5 26.25 C0.71 23.06, 0.58 19.96, 5.5 15.75 M5.5 15.75 C10.12 11.55, 13.23 9.52, 16.5 5.25 M5.5 15.75 C9.21 13.27, 12.39 9.99, 16.5 5.25 M16.5 5.25 C22.38 0.3, 23.45 -0.12, 27.5 5.25 M16.5 5.25 C20.76 1.3, 21.56 -1.04, 27.5 5.25" stroke="#1e1e1e" stroke-width="2" fill="none"></path></g><g transform="translate(291.4318417812536 121.47546887028209) rotate(0 52.734375000000014 12)"><text x="0" y="0" font-family="Cascadia, Segoe UI Emoji" font-size="20px" fill="#1e1e1e" text-anchor="start" style="white-space: pre;" direction="ltr" dominant-baseline="text-before-edge">Событие А</text></g><g stroke-opacity="0.5" fill-opacity="0.5" transform="translate(280.7968765862423 306.9288612268465) rotate(0 79.68749999999999 48)"><text x="0" y="0" font-family="Cascadia, Segoe UI Emoji" font-size="16px" fill="#1e1e1e" text-anchor="start" style="white-space: pre;" direction="ltr" dominant-baseline="text-before-edge">Вход:</text><text x="0" y="19.2" font-family="Cascadia, Segoe UI Emoji" font-size="16px" fill="#1e1e1e" text-anchor="start" style="white-space: pre;" direction="ltr" dominant-baseline="text-before-edge">Выход:</text><text x="0" y="38.4" font-family="Cascadia, Segoe UI Emoji" font-size="16px" fill="#1e1e1e" text-anchor="start" style="white-space: pre;" direction="ltr" dominant-baseline="text-before-edge">Каналы—артефакты:</text><text x="0" y="57.599999999999994" font-family="Cascadia, Segoe UI Emoji" font-size="16px" fill="#1e1e1e" text-anchor="start" style="white-space: pre;" direction="ltr" dominant-baseline="text-before-edge">Барьеры-средства</text><text x="0" y="76.8" font-family="Cascadia, Segoe UI Emoji" font-size="16px" fill="#1e1e1e" text-anchor="start" style="white-space: pre;" direction="ltr" dominant-baseline="text-before-edge">Операции:</text></g><g stroke-linecap="round" transform="translate(858.8267270351228 259.0801680351598) rotate(0 15.803995935042622 15.668768815933007)"><path d="M13.91 -0.06 C17.08 -0.7, 21.41 1.05, 24.15 2.77 C26.89 4.5, 29.34 7.21, 30.33 10.29 C31.33 13.38, 31.25 18.07, 30.11 21.3 C28.96 24.53, 26.39 27.99, 23.44 29.67 C20.49 31.35, 15.74 32.01, 12.41 31.37 C9.08 30.74, 5.54 28.58, 3.45 25.87 C1.37 23.16, -0.16 18.6, -0.11 15.12 C-0.07 11.64, 1.28 7.58, 3.72 5 C6.17 2.42, 12.61 0.41, 14.55 -0.35 C16.49 -1.1, 15.29 0.16, 15.34 0.45 M17.78 -0.06 C20.9 0.23, 25.28 2.87, 27.52 5.34 C29.77 7.82, 31.06 11.47, 31.23 14.79 C31.41 18.11, 30.58 22.67, 28.59 25.27 C26.6 27.88, 22.76 29.63, 19.3 30.41 C15.83 31.19, 10.88 31.39, 7.81 29.95 C4.74 28.51, 2.16 25.03, 0.88 21.77 C-0.4 18.51, -0.96 13.68, 0.15 10.38 C1.26 7.08, 4.71 3.64, 7.55 1.95 C10.39 0.25, 15.59 0.57, 17.18 0.19 C18.78 -0.18, 17 -0.43, 17.11 -0.3" stroke="none" stroke-width="0" fill="#1e1e1e"></path><path d="M12.12 0.42 C15.36 -0.45, 20.6 -0.06, 23.61 1.44 C26.61 2.94, 28.96 6.31, 30.14 9.44 C31.32 12.56, 31.74 16.93, 30.69 20.17 C29.64 23.42, 26.66 27.04, 23.83 28.93 C20.99 30.81, 16.93 31.86, 13.68 31.46 C10.43 31.07, 6.55 29.12, 4.31 26.58 C2.07 24.03, 0.43 19.63, 0.24 16.21 C0.06 12.78, 1.13 8.76, 3.21 6.01 C5.29 3.27, 10.89 0.61, 12.72 -0.26 C14.54 -1.12, 14.13 0.53, 14.17 0.83 M12.01 0.7 C15.05 -0.09, 19.57 0.45, 22.63 1.94 C25.7 3.43, 29.12 6.63, 30.4 9.63 C31.68 12.63, 31.38 16.62, 30.32 19.94 C29.25 23.25, 26.84 27.58, 24.03 29.53 C21.23 31.48, 16.67 32.1, 13.49 31.64 C10.32 31.18, 7.18 29.22, 4.99 26.76 C2.8 24.31, 0.63 20.4, 0.34 16.92 C0.05 13.44, 1.33 8.74, 3.27 5.88 C5.2 3.02, 10.32 0.65, 11.94 -0.22 C13.56 -1.1, 12.9 0.24, 12.99 0.64" stroke="#1e1e1e" stroke-width="2" fill="none"></path></g><g transform="translate(902.4026408760894 262.54319517201634) rotate(0 23.4375 12)"><text x="0" y="0" font-family="Cascadia, Segoe UI Emoji" font-size="20px" fill="#1e1e1e" text-anchor="start" style="white-space: pre;" direction="ltr" dominant-baseline="text-before-edge">КТ 3</text></g><g stroke-linecap="round"><g transform="translate(705.6465583939839 275.9305961726608) rotate(0 73.06502933478276 -0.4419489852392786)"><path d="M1.15 -0.12 C25.55 -0.32, 122.83 -0.64, 146.88 -0.63" stroke="#1e1e1e" stroke-width="4.5" fill="none" stroke-dasharray="8 12"></path></g></g><mask></mask><g stroke-linecap="round" transform="translate(1146.2606381230553 253.28124716209277) rotate(0 21.395643184398295 20.70138006102971)"><path d="M27.5 5.25 C29.43 9.2, 34.2 12.9, 37.29 15.75 M27.5 5.25 C29.98 7.66, 31.05 9.84, 37.29 15.75 M37.29 15.75 C42.98 22.58, 40.91 21.13, 37.29 26.25 M37.29 15.75 C41.12 19.89, 41.6 20.23, 37.29 26.25 M37.29 26.25 C35.81 29.88, 31.37 32.04, 27.5 36.15 M37.29 26.25 C33.99 29.72, 29.8 33.17, 27.5 36.15 M27.5 36.15 C20.39 41.75, 20.48 41.13, 16.5 36.15 M27.5 36.15 C21.16 43.55, 22.96 39.28, 16.5 36.15 M16.5 36.15 C14.18 32.51, 10.38 30.27, 5.5 26.25 M16.5 36.15 C12.83 32.58, 8.83 28.99, 5.5 26.25 M5.5 26.25 C-0.43 21.59, -1.99 21.74, 5.5 15.75 M5.5 26.25 C1.96 21, 1.95 22.99, 5.5 15.75 M5.5 15.75 C9.77 10.26, 14.95 6.86, 16.5 5.25 M5.5 15.75 C9.46 12.52, 11.37 9.58, 16.5 5.25 M16.5 5.25 C23.61 0.89, 23.21 0.56, 27.5 5.25 M16.5 5.25 C23.26 -0.57, 21.62 -1.49, 27.5 5.25" stroke="#1e1e1e" stroke-width="2" fill="none"></path></g><g transform="translate(1198.1303605573016 261.24432579316056) rotate(0 58.59375 12)"><text x="0" y="0" font-family="Cascadia, Segoe UI Emoji" font-size="20px" fill="#1e1e1e" text-anchor="start" style="white-space: pre;" direction="ltr" dominant-baseline="text-before-edge">Как бы да?</text></g><g mask="url(#mask-CGUV2rUHFptMYSiSVy5y9)" stroke-linecap="round"><g transform="translate(1167.6562813074536 250.35464260012458) rotate(0 -449.6425408075471 -30.09545154877479)"><path d="M0.65 1.13 C-80.6 -9.47, -336.39 -62.71, -486.38 -62.44 C-636.38 -62.17, -830.65 -8.24, -899.31 2.74 M-0.46 0.67 C-81.98 -9.81, -337.47 -65.04, -487.41 -64.45 C-637.35 -63.86, -831.73 -6.77, -900.08 4.2" stroke="#1e1e1e" stroke-width="2" fill="none"></path></g><g transform="translate(1167.6562813074536 250.35464260012458) rotate(0 -449.6425408075471 -30.09545154877479)"><path d="M-878.91 -9.1 C-885.23 -4.01, -895.07 1.43, -900.08 4.2 M-878.91 -9.1 C-885.05 -5.16, -891.54 -0.86, -900.08 4.2" stroke="#1e1e1e" stroke-width="2" fill="none"></path></g><g transform="translate(1167.6562813074536 250.35464260012458) rotate(0 -449.6425408075471 -30.09545154877479)"><path d="M-875.32 7.62 C-883.21 6.16, -894.46 5.03, -900.08 4.2 M-875.32 7.62 C-882.76 6.19, -890.4 5.11, -900.08 4.2" stroke="#1e1e1e" stroke-width="2" fill="none"></path></g></g><mask id="mask-CGUV2rUHFptMYSiSVy5y9"><rect x="0" y="0" fill="#fff" width="2166.941362922548" height="415.48681835991965"></rect><rect x="672.0467093388806" y="178.0931031714523" fill="#000" width="18.75" height="19.2" opacity="1"></rect></mask><g transform="translate(672.0467093388805 178.09310317145227) rotate(0 45.89499942183477 42.132381285960975)"><text x="9.375" y="0" font-family="Cascadia, Segoe UI Emoji" font-size="16px" fill="#1e1e1e" text-anchor="middle" style="white-space: pre;" direction="ltr" dominant-baseline="text-before-edge">Да</text></g><g stroke-linecap="round"><g transform="translate(957.110395104263 275.5139286812901) rotate(0 92.20051008377055 0.6760237780280391)"><path d="M-0.12 -0.52 C30.68 -0.45, 153.46 -0.01, 184.37 0.28 M-1.64 1.82 C29.03 2.01, 152.28 1.15, 183.41 1.26" stroke="#1e1e1e" stroke-width="2" fill="none"></path></g></g><mask></mask><g stroke-linecap="round" transform="translate(1333.566028493516 452.08704648187097) rotate(0 15.803995935042622 15.668768815932992)"><path d="M19.29 0.91 C22.57 1.44, 26.99 3.44, 29.03 6.05 C31.08 8.65, 31.96 13.17, 31.56 16.52 C31.17 19.87, 29.09 23.73, 26.66 26.13 C24.23 28.54, 20.22 30.59, 16.99 30.94 C13.75 31.3, 10.05 30.17, 7.25 28.28 C4.46 26.39, 1.17 22.85, 0.21 19.62 C-0.76 16.4, -0.04 11.94, 1.46 8.94 C2.97 5.94, 6.13 3.09, 9.25 1.63 C12.37 0.18, 18.3 0.25, 20.17 0.21 C22.04 0.18, 20.51 1.01, 20.48 1.41 M12.97 0.58 C16.03 -0.31, 20.09 0.16, 23.11 1.59 C26.12 3.03, 29.85 6.02, 31.05 9.19 C32.24 12.36, 31.44 17.3, 30.27 20.61 C29.1 23.91, 26.87 27.36, 24.03 29.02 C21.19 30.69, 16.59 31.01, 13.24 30.61 C9.88 30.2, 6.09 28.95, 3.89 26.58 C1.69 24.22, 0.18 19.86, 0.02 16.41 C-0.14 12.97, 0.75 8.52, 2.92 5.9 C5.1 3.28, 11.48 1.65, 13.08 0.7 C14.69 -0.25, 12.59 0.05, 12.53 0.2" stroke="#1e1e1e" stroke-width="2" fill="none"></path></g><g transform="translate(1375.2501748985467 455.26756048737525) rotate(0 23.4375 12)"><text x="0" y="0" font-family="Cascadia, Segoe UI Emoji" font-size="20px" fill="#1e1e1e" text-anchor="start" style="white-space: pre;" direction="ltr" dominant-baseline="text-before-edge">КТ 5</text></g><g stroke-linecap="round"><g transform="translate(1249.4166255993991 468.1194167718447) rotate(0 37.78583664003179 -0.0657333894438068)"><path d="M0.19 -0.01 C12.54 0.26, 62.13 1, 74.62 0.96 M-1.17 -1.06 C11.5 -1.04, 64.28 -0.94, 76.83 -0.59" stroke="#1e1e1e" stroke-width="2" fill="none"></path></g></g><mask></mask><g stroke-opacity="0.5" fill-opacity="0.5" transform="translate(646.0855170402451 307.1238127101233) rotate(0 79.6875 48)"><text x="0" y="0" font-family="Cascadia, Segoe UI Emoji" font-size="16px" fill="#1e1e1e" text-anchor="start" style="white-space: pre;" direction="ltr" dominant-baseline="text-before-edge">Вход:</text><text x="0" y="19.2" font-family="Cascadia, Segoe UI Emoji" font-size="16px" fill="#1e1e1e" text-anchor="start" style="white-space: pre;" direction="ltr" dominant-baseline="text-before-edge">Выход:</text><text x="0" y="38.4" font-family="Cascadia, Segoe UI Emoji" font-size="16px" fill="#1e1e1e" text-anchor="start" style="white-space: pre;" direction="ltr" dominant-baseline="text-before-edge">Каналы—артефакты:</text><text x="0" y="57.599999999999994" font-family="Cascadia, Segoe UI Emoji" font-size="16px" fill="#1e1e1e" text-anchor="start" style="white-space: pre;" direction="ltr" dominant-baseline="text-before-edge">Барьеры-средства</text><text x="0" y="76.8" font-family="Cascadia, Segoe UI Emoji" font-size="16px" fill="#1e1e1e" text-anchor="start" style="white-space: pre;" direction="ltr" dominant-baseline="text-before-edge">Операции:</text></g><g stroke-opacity="0.5" fill-opacity="0.5" transform="translate(904.7635253583924 306.9288612268465) rotate(0 79.6875 48)"><text x="0" y="0" font-family="Cascadia, Segoe UI Emoji" font-size="16px" fill="#1e1e1e" text-anchor="start" style="white-space: pre;" direction="ltr" dominant-baseline="text-before-edge">Вход:</text><text x="0" y="19.2" font-family="Cascadia, Segoe UI Emoji" font-size="16px" fill="#1e1e1e" text-anchor="start" style="white-space: pre;" direction="ltr" dominant-baseline="text-before-edge">Выход:</text><text x="0" y="38.4" font-family="Cascadia, Segoe UI Emoji" font-size="16px" fill="#1e1e1e" text-anchor="start" style="white-space: pre;" direction="ltr" dominant-baseline="text-before-edge">Каналы—артефакты:</text><text x="0" y="57.599999999999994" font-family="Cascadia, Segoe UI Emoji" font-size="16px" fill="#1e1e1e" text-anchor="start" style="white-space: pre;" direction="ltr" dominant-baseline="text-before-edge">Барьеры-средства</text><text x="0" y="76.8" font-family="Cascadia, Segoe UI Emoji" font-size="16px" fill="#1e1e1e" text-anchor="start" style="white-space: pre;" direction="ltr" dominant-baseline="text-before-edge">Операции:</text></g><g stroke-opacity="0.5" fill-opacity="0.5" transform="translate(1162.3200134984093 521.0533124664137) rotate(0 79.6875 48)"><text x="0" y="0" font-family="Cascadia, Segoe UI Emoji" font-size="16px" fill="#1e1e1e" text-anchor="start" style="white-space: pre;" direction="ltr" dominant-baseline="text-before-edge">Вход:</text><text x="0" y="19.2" font-family="Cascadia, Segoe UI Emoji" font-size="16px" fill="#1e1e1e" text-anchor="start" style="white-space: pre;" direction="ltr" dominant-baseline="text-before-edge">Выход:</text><text x="0" y="38.4" font-family="Cascadia, Segoe UI Emoji" font-size="16px" fill="#1e1e1e" text-anchor="start" style="white-space: pre;" direction="ltr" dominant-baseline="text-before-edge">Каналы—артефакты:</text><text x="0" y="57.599999999999994" font-family="Cascadia, Segoe UI Emoji" font-size="16px" fill="#1e1e1e" text-anchor="start" style="white-space: pre;" direction="ltr" dominant-baseline="text-before-edge">Барьеры-средства</text><text x="0" y="76.8" font-family="Cascadia, Segoe UI Emoji" font-size="16px" fill="#1e1e1e" text-anchor="start" style="white-space: pre;" direction="ltr" dominant-baseline="text-before-edge">Операции:</text></g><g stroke-opacity="0.5" fill-opacity="0.5" transform="translate(1378.1624324212837 521.0533124664137) rotate(0 79.6875 48)"><text x="0" y="0" font-family="Cascadia, Segoe UI Emoji" font-size="16px" fill="#1e1e1e" text-anchor="start" style="white-space: pre;" direction="ltr" dominant-baseline="text-before-edge">Вход:</text><text x="0" y="19.2" font-family="Cascadia, Segoe UI Emoji" font-size="16px" fill="#1e1e1e" text-anchor="start" style="white-space: pre;" direction="ltr" dominant-baseline="text-before-edge">Выход:</text><text x="0" y="38.4" font-family="Cascadia, Segoe UI Emoji" font-size="16px" fill="#1e1e1e" text-anchor="start" style="white-space: pre;" direction="ltr" dominant-baseline="text-before-edge">Каналы—артефакты:</text><text x="0" y="57.599999999999994" font-family="Cascadia, Segoe UI Emoji" font-size="16px" fill="#1e1e1e" text-anchor="start" style="white-space: pre;" direction="ltr" dominant-baseline="text-before-edge">Барьеры-средства</text><text x="0" y="76.8" font-family="Cascadia, Segoe UI Emoji" font-size="16px" fill="#1e1e1e" text-anchor="start" style="white-space: pre;" direction="ltr" dominant-baseline="text-before-edge">Операции:</text></g><g transform="translate(252.36901486841063 10) rotate(0 63.28125 21.599999999999998)"><text x="0" y="0" font-family="Cascadia, Segoe UI Emoji" font-size="36px" fill="#1e1e1e" text-anchor="start" style="white-space: pre;" direction="ltr" dominant-baseline="text-before-edge">Этап 1</text></g><g transform="translate(1151.1652334326645 10) rotate(0 63.28125 21.599999999999998)"><text x="0" y="0" font-family="Cascadia, Segoe UI Emoji" font-size="36px" fill="#1e1e1e" text-anchor="start" style="white-space: pre;" direction="ltr" dominant-baseline="text-before-edge">Этап 2</text></g><g transform="translate(148.8092217537368 300.71682475582645) rotate(0 24.369386992221166 -6.688767771430278)" stroke="none"><path fill="#1e1e1e" d="M -2.43,-3.84 Q -2.43,-3.84 -2.14,-5.78 -1.84,-7.71 -1.31,-9.66 -0.79,-11.61 -0.49,-12.78 -0.20,-13.95 0.35,-15.45 0.91,-16.94 1.40,-17.95 1.89,-18.95 2.72,-19.90 3.56,-20.84 4.21,-21.54 4.87,-22.24 5.13,-22.49 5.39,-22.74 5.70,-22.93 6.02,-23.11 6.37,-23.21 6.71,-23.31 7.08,-23.32 7.44,-23.34 7.79,-23.26 8.15,-23.19 8.47,-23.04 8.80,-22.88 9.08,-22.65 9.36,-22.42 9.58,-22.13 9.80,-21.84 9.94,-21.51 10.08,-21.17 10.14,-20.82 10.20,-20.46 10.17,-20.10 10.14,-19.74 10.02,-19.39 9.91,-19.05 9.71,-18.74 9.52,-18.44 9.61,-20.22 9.70,-22.01 10.68,-20.95 11.65,-19.90 12.95,-18.31 14.25,-16.71 15.13,-15.44 16.01,-14.17 16.94,-12.80 17.87,-11.43 18.65,-10.32 19.43,-9.21 20.46,-7.69 21.49,-6.17 22.67,-4.55 23.86,-2.92 24.65,-2.06 25.44,-1.20 26.36,-0.26 27.29,0.66 28.15,1.61 29.02,2.56 29.73,3.48 30.45,4.39 31.28,5.45 32.10,6.51 32.75,7.37 33.40,8.22 33.62,8.85 33.85,9.47 33.87,9.85 33.90,10.23 33.83,10.61 33.76,10.98 33.60,11.33 33.45,11.68 33.21,11.98 32.98,12.28 32.68,12.52 32.37,12.75 32.03,12.91 31.68,13.06 31.30,13.13 30.93,13.20 30.55,13.18 30.17,13.15 29.80,13.04 29.44,12.93 29.11,12.73 28.79,12.53 28.52,12.26 28.25,11.99 28.05,11.67 27.85,11.34 27.74,10.98 27.63,10.61 27.58,9.11 27.53,7.60 27.52,6.07 27.50,4.54 27.63,2.83 27.76,1.12 27.97,-0.61 28.18,-2.34 28.28,-3.58 28.39,-4.82 28.51,-6.26 28.63,-7.69 28.79,-9.18 28.95,-10.67 29.10,-11.86 29.25,-13.05 29.36,-14.14 29.46,-15.23 29.60,-16.38 29.75,-17.52 29.87,-18.91 30.00,-20.31 30.00,-21.40 30.01,-22.49 30.25,-23.78 30.49,-25.06 31.99,-26.10 33.48,-27.13 34.96,-26.90 36.45,-26.66 37.70,-26.00 38.95,-25.34 40.07,-24.66 41.18,-23.99 42.56,-22.90 43.95,-21.81 45.73,-20.34 47.52,-18.86 49.73,-15.75 51.94,-12.64 51.87,-12.13 51.80,-11.62 51.57,-11.15 51.34,-10.69 50.98,-10.32 50.61,-9.95 50.15,-9.72 49.68,-9.49 49.17,-9.41 48.66,-9.34 48.15,-9.44 47.64,-9.53 47.19,-9.79 46.73,-10.04 46.39,-10.43 46.04,-10.81 45.83,-11.29 45.63,-11.76 45.58,-12.28 45.54,-12.80 45.66,-13.30 45.79,-13.80 46.06,-14.24 46.34,-14.68 46.74,-15.00 47.15,-15.33 47.63,-15.51 48.12,-15.69 48.64,-15.71 49.16,-15.72 49.65,-15.57 50.15,-15.42 50.57,-15.12 50.99,-14.82 51.30,-14.40 51.60,-13.98 51.75,-13.48 51.91,-12.99 51.90,-12.47 51.88,-11.95 51.71,-11.47 51.53,-10.98 51.21,-10.57 50.88,-10.17 50.45,-9.89 50.01,-9.61 49.51,-9.48 49.00,-9.35 48.49,-9.39 47.97,-9.43 47.49,-9.64 47.02,-9.84 46.63,-10.19 46.24,-10.53 45.99,-10.98 45.73,-11.43 45.63,-11.94 45.53,-12.45 45.53,-12.45 45.53,-12.45 44.47,-13.23 43.42,-14.00 41.81,-15.22 40.19,-16.44 39.01,-17.16 37.82,-17.87 36.76,-19.13 35.70,-20.39 36.52,-21.58 37.33,-22.78 37.30,-21.70 37.27,-20.61 37.16,-19.28 37.05,-17.96 36.91,-16.89 36.77,-15.83 36.57,-14.38 36.38,-12.92 36.16,-11.79 35.95,-10.65 35.75,-9.20 35.56,-7.75 35.32,-6.38 35.09,-5.01 34.97,-3.92 34.86,-2.84 34.66,-1.38 34.47,0.07 34.28,1.66 34.08,3.26 34.02,4.62 33.97,5.97 33.91,7.72 33.85,9.47 33.87,9.85 33.90,10.23 33.83,10.61 33.76,10.98 33.60,11.33 33.45,11.68 33.21,11.98 32.98,12.28 32.68,12.52 32.38,12.75 32.03,12.91 31.68,13.06 31.30,13.13 30.93,13.20 30.55,13.18 30.17,13.15 29.80,13.04 29.44,12.93 29.11,12.73 28.79,12.53 28.52,12.26 28.25,11.99 28.05,11.67 27.85,11.34 27.74,10.98 27.63,10.61 27.57,10.60 27.52,10.60 26.85,9.52 26.19,8.44 25.42,7.15 24.65,5.85 24.01,4.91 23.37,3.96 22.61,2.89 21.85,1.83 21.12,0.89 20.40,-0.03 18.95,-1.55 17.50,-3.08 16.22,-4.54 14.94,-6.01 14.18,-7.05 13.42,-8.09 12.36,-9.36 11.30,-10.63 10.41,-11.72 9.53,-12.81 8.17,-14.40 6.81,-15.99 5.82,-17.23 4.83,-18.47 4.85,-20.36 4.87,-22.24 5.13,-22.49 5.39,-22.74 5.70,-22.93 6.02,-23.11 6.37,-23.21 6.71,-23.31 7.08,-23.32 7.44,-23.34 7.79,-23.26 8.15,-23.19 8.47,-23.04 8.80,-22.88 9.08,-22.65 9.36,-22.42 9.58,-22.13 9.80,-21.84 9.94,-21.51 10.08,-21.17 10.14,-20.82 10.20,-20.46 10.17,-20.10 10.14,-19.74 10.02,-19.39 9.91,-19.05 9.71,-18.74 9.52,-18.44 9.49,-18.40 9.45,-18.37 8.42,-17.53 7.38,-16.70 6.34,-15.65 5.30,-14.60 4.70,-13.62 4.11,-12.64 3.73,-11.61 3.36,-10.58 2.99,-8.92 2.62,-7.25 2.53,-5.30 2.43,-3.35 2.37,-3.06 2.31,-2.77 2.17,-2.51 2.04,-2.24 1.85,-2.02 1.66,-1.79 1.42,-1.62 1.18,-1.45 0.90,-1.34 0.63,-1.23 0.34,-1.19 0.05,-1.14 -0.24,-1.17 -0.53,-1.20 -0.81,-1.30 -1.09,-1.40 -1.34,-1.56 -1.58,-1.73 -1.78,-1.94 -1.98,-2.16 -2.13,-2.42 -2.27,-2.68 -2.35,-2.96 -2.42,-3.25 -2.43,-3.54 -2.43,-3.84 -2.43,-3.84 L -2.43,-3.84 Z"></path></g><g stroke-linecap="round" transform="translate(150.61715318569057 240.03456331226806) rotate(0 14.978255207084715 14.978255207084715)"><path d="M15.97 -0.43 C19.14 -0.45, 22.95 1.46, 25.29 3.74 C27.64 6.01, 29.6 9.91, 30.04 13.19 C30.48 16.48, 29.68 20.79, 27.95 23.45 C26.22 26.1, 22.8 28.22, 19.66 29.1 C16.52 29.97, 12.12 29.92, 9.1 28.7 C6.08 27.48, 3.02 24.67, 1.53 21.79 C0.05 18.91, -0.46 14.49, 0.19 11.43 C0.84 8.36, 2.86 5.36, 5.42 3.39 C7.97 1.42, 13.69 0.12, 15.53 -0.41 C17.38 -0.94, 16.53 -0.04, 16.5 0.22 M12.04 0.72 C14.99 -0.01, 19.51 0.63, 22.33 2.1 C25.14 3.57, 27.87 6.66, 28.93 9.56 C29.98 12.46, 29.64 16.46, 28.63 19.51 C27.63 22.56, 25.53 26.27, 22.91 27.87 C20.29 29.46, 16.13 29.54, 12.91 29.08 C9.69 28.62, 5.83 27.43, 3.59 25.12 C1.35 22.82, -0.55 18.57, -0.53 15.23 C-0.52 11.88, 1.57 7.61, 3.67 5.06 C5.77 2.52, 10.61 0.58, 12.07 -0.07 C13.53 -0.72, 12.43 0.88, 12.42 1.16" stroke="#1e1e1e" stroke-width="4" fill="none"></path></g><g transform="translate(10 257.37410831823894) rotate(0 57.421875 16.799999999999997)"><text x="0" y="0" font-family="Cascadia, Segoe UI Emoji" font-size="28px" fill="#1e1e1e" text-anchor="start" style="white-space: pre;" direction="ltr" dominant-baseline="text-before-edge">Агент 1</text></g><g transform="translate(1061.5111288690473 500.98269390936014) rotate(0 24.369386992221166 -6.688767771430264)" stroke="none"><path fill="#1e1e1e" d="M -2.43,-3.84 Q -2.43,-3.84 -2.14,-5.78 -1.84,-7.71 -1.31,-9.66 -0.79,-11.61 -0.49,-12.78 -0.20,-13.95 0.35,-15.45 0.91,-16.94 1.40,-17.95 1.89,-18.95 2.72,-19.90 3.56,-20.84 4.21,-21.54 4.87,-22.24 5.13,-22.49 5.39,-22.74 5.70,-22.93 6.02,-23.11 6.37,-23.21 6.71,-23.31 7.08,-23.32 7.44,-23.34 7.79,-23.26 8.15,-23.19 8.47,-23.04 8.80,-22.88 9.08,-22.65 9.36,-22.42 9.58,-22.13 9.80,-21.84 9.94,-21.51 10.08,-21.17 10.14,-20.82 10.20,-20.46 10.17,-20.10 10.14,-19.74 10.02,-19.39 9.91,-19.05 9.71,-18.74 9.52,-18.44 9.61,-20.22 9.70,-22.01 10.68,-20.95 11.65,-19.90 12.95,-18.31 14.25,-16.71 15.13,-15.44 16.01,-14.17 16.94,-12.80 17.87,-11.43 18.65,-10.32 19.43,-9.21 20.46,-7.69 21.49,-6.17 22.67,-4.55 23.86,-2.92 24.65,-2.06 25.44,-1.20 26.36,-0.26 27.29,0.66 28.15,1.61 29.02,2.56 29.73,3.48 30.45,4.39 31.28,5.45 32.10,6.51 32.75,7.37 33.40,8.22 33.62,8.85 33.85,9.47 33.87,9.85 33.90,10.23 33.83,10.61 33.76,10.98 33.60,11.33 33.45,11.68 33.21,11.98 32.98,12.28 32.68,12.52 32.37,12.75 32.03,12.91 31.68,13.06 31.30,13.13 30.93,13.20 30.55,13.18 30.17,13.15 29.80,13.04 29.44,12.93 29.11,12.73 28.79,12.53 28.52,12.26 28.25,11.99 28.05,11.67 27.85,11.34 27.74,10.98 27.63,10.61 27.58,9.11 27.53,7.60 27.52,6.07 27.50,4.54 27.63,2.83 27.76,1.12 27.97,-0.61 28.18,-2.34 28.28,-3.58 28.39,-4.82 28.51,-6.26 28.63,-7.69 28.79,-9.18 28.95,-10.67 29.10,-11.86 29.25,-13.05 29.36,-14.14 29.46,-15.23 29.60,-16.38 29.75,-17.52 29.87,-18.91 30.00,-20.31 30.00,-21.40 30.01,-22.49 30.25,-23.78 30.49,-25.06 31.99,-26.10 33.48,-27.13 34.96,-26.90 36.45,-26.66 37.70,-26.00 38.95,-25.34 40.07,-24.66 41.18,-23.99 42.56,-22.90 43.95,-21.81 45.73,-20.34 47.52,-18.86 49.73,-15.75 51.94,-12.64 51.87,-12.13 51.80,-11.62 51.57,-11.15 51.34,-10.69 50.98,-10.32 50.61,-9.95 50.15,-9.72 49.68,-9.49 49.17,-9.41 48.66,-9.34 48.15,-9.44 47.64,-9.53 47.19,-9.79 46.73,-10.04 46.39,-10.43 46.04,-10.81 45.83,-11.29 45.63,-11.76 45.58,-12.28 45.54,-12.80 45.66,-13.30 45.79,-13.80 46.06,-14.24 46.34,-14.68 46.74,-15.00 47.15,-15.33 47.63,-15.51 48.12,-15.69 48.64,-15.71 49.16,-15.72 49.65,-15.57 50.15,-15.42 50.57,-15.12 50.99,-14.82 51.30,-14.40 51.60,-13.98 51.75,-13.48 51.91,-12.99 51.90,-12.47 51.88,-11.95 51.71,-11.47 51.53,-10.98 51.21,-10.57 50.88,-10.17 50.45,-9.89 50.01,-9.61 49.51,-9.48 49.00,-9.35 48.49,-9.39 47.97,-9.43 47.49,-9.64 47.02,-9.84 46.63,-10.19 46.24,-10.53 45.99,-10.98 45.73,-11.43 45.63,-11.94 45.53,-12.45 45.53,-12.45 45.53,-12.45 44.47,-13.23 43.42,-14.00 41.81,-15.22 40.19,-16.44 39.01,-17.16 37.82,-17.87 36.76,-19.13 35.70,-20.39 36.52,-21.58 37.33,-22.78 37.30,-21.70 37.27,-20.61 37.16,-19.28 37.05,-17.96 36.91,-16.89 36.77,-15.83 36.57,-14.38 36.38,-12.92 36.16,-11.79 35.95,-10.65 35.75,-9.20 35.56,-7.75 35.32,-6.38 35.09,-5.01 34.97,-3.92 34.86,-2.84 34.66,-1.38 34.47,0.07 34.28,1.66 34.08,3.26 34.02,4.62 33.97,5.97 33.91,7.72 33.85,9.47 33.87,9.85 33.90,10.23 33.83,10.61 33.76,10.98 33.60,11.33 33.45,11.68 33.21,11.98 32.98,12.28 32.68,12.52 32.38,12.75 32.03,12.91 31.68,13.06 31.30,13.13 30.93,13.20 30.55,13.18 30.17,13.15 29.80,13.04 29.44,12.93 29.11,12.73 28.79,12.53 28.52,12.26 28.25,11.99 28.05,11.67 27.85,11.34 27.74,10.98 27.63,10.61 27.57,10.60 27.52,10.60 26.85,9.52 26.19,8.44 25.42,7.15 24.65,5.85 24.01,4.91 23.37,3.96 22.61,2.89 21.85,1.83 21.12,0.89 20.40,-0.03 18.95,-1.55 17.50,-3.08 16.22,-4.54 14.94,-6.01 14.18,-7.05 13.42,-8.09 12.36,-9.36 11.30,-10.63 10.41,-11.72 9.53,-12.81 8.17,-14.40 6.81,-15.99 5.82,-17.23 4.83,-18.47 4.85,-20.36 4.87,-22.24 5.13,-22.49 5.39,-22.74 5.70,-22.93 6.02,-23.11 6.37,-23.21 6.71,-23.31 7.08,-23.32 7.44,-23.34 7.79,-23.26 8.15,-23.19 8.47,-23.04 8.80,-22.88 9.08,-22.65 9.36,-22.42 9.58,-22.13 9.80,-21.84 9.94,-21.51 10.08,-21.17 10.14,-20.82 10.20,-20.46 10.17,-20.10 10.14,-19.74 10.02,-19.39 9.91,-19.05 9.71,-18.74 9.52,-18.44 9.49,-18.40 9.45,-18.37 8.42,-17.53 7.38,-16.70 6.34,-15.65 5.30,-14.60 4.70,-13.62 4.11,-12.64 3.73,-11.61 3.36,-10.58 2.99,-8.92 2.62,-7.25 2.53,-5.30 2.43,-3.35 2.37,-3.06 2.31,-2.77 2.17,-2.51 2.04,-2.24 1.85,-2.02 1.66,-1.79 1.42,-1.62 1.18,-1.45 0.90,-1.34 0.63,-1.23 0.34,-1.19 0.05,-1.14 -0.24,-1.17 -0.53,-1.20 -0.81,-1.30 -1.09,-1.40 -1.34,-1.56 -1.58,-1.73 -1.78,-1.94 -1.98,-2.16 -2.13,-2.42 -2.27,-2.68 -2.35,-2.96 -2.42,-3.25 -2.43,-3.54 -2.43,-3.84 -2.43,-3.84 L -2.43,-3.84 Z"></path></g><g stroke-linecap="round" transform="translate(1063.3190603010012 440.30043246580175) rotate(0 14.978255207084715 14.978255207084715)"><path d="M11.8 0.27 C14.74 -0.43, 19.37 0.28, 22.22 1.85 C25.07 3.42, 27.71 6.7, 28.92 9.69 C30.12 12.68, 30.43 16.79, 29.43 19.77 C28.43 22.76, 25.65 25.88, 22.9 27.6 C20.15 29.31, 16.09 30.52, 12.95 30.06 C9.81 29.61, 6.18 27.28, 4.08 24.87 C1.98 22.46, 0.48 18.87, 0.33 15.6 C0.18 12.34, 1.01 7.91, 3.17 5.26 C5.34 2.61, 11.55 0.54, 13.35 -0.3 C15.14 -1.14, 14.04 -0.1, 13.96 0.23 M13.96 0.6 C16.85 0.45, 21.36 1.84, 23.92 3.77 C26.49 5.69, 28.6 9.19, 29.36 12.15 C30.12 15.12, 30.04 18.72, 28.5 21.57 C26.95 24.41, 23.16 27.86, 20.07 29.21 C16.99 30.56, 13.07 30.84, 9.99 29.65 C6.91 28.46, 3.19 24.84, 1.6 22.07 C0.01 19.31, -0.04 16.24, 0.45 13.07 C0.94 9.9, 2.05 5.18, 4.52 3.03 C6.99 0.89, 13.52 0.63, 15.27 0.21 C17.02 -0.22, 14.97 0.31, 15 0.49" stroke="#1e1e1e" stroke-width="4" fill="none"></path></g><g transform="translate(921.5060040641486 454.1317470538072) rotate(0 57.421875 16.80000000000001)"><text x="0" y="0" font-family="Cascadia, Segoe UI Emoji" font-size="28px" fill="#1e1e1e" text-anchor="start" style="white-space: pre;" direction="ltr" dominant-baseline="text-before-edge">Агент 2</text></g></svg>